<svg width="200" height="200" xmlns="http://www.w3.org/2000/svg" viewBox="0 0 100 100">
  <!-- Background circle representing a galaxy or star cluster -->
  <circle cx="50" cy="50" r="48" fill="#0c3b2e"/>

  <!-- Swirling Z-shape with larger stars representing key points -->
  <path d="M 20 40 Q 50 10, 80 40 Q 60 60, 40 80" fill="none" stroke="#ffffff" stroke-width="4" stroke-linecap="round"/>
  <circle cx="20" cy="40" r="2.5" fill="#ffffff"/>
  <circle cx="80" cy="40" r="2.5" fill="#ffffff"/>
  <circle cx="40" cy="80" r="2.5" fill="#ffffff"/>

  <!-- Smaller stars scattered in the background for a galaxy effect -->
  <circle cx="15" cy="15" r="0.8" fill="#d3d3d3"/>
  <circle cx="25" cy="65" r="1.0" fill="#d3d3d3"/>
  <circle cx="35" cy="35" r="0.7" fill="#d3d3d3"/>
  <circle cx="45" cy="75" r="1.2" fill="#d3d3d3"/>
  <circle cx="55" cy="55" r="0.9" fill="#d3d3d3"/>
  <circle cx="65" cy="25" r="0.8" fill="#d3d3d3"/>
  <circle cx="70" cy="85" r="1.1" fill="#d3d3d3"/>
  <circle cx="80" cy="60" r="1.0" fill="#d3d3d3"/>
  <circle cx="90" cy="30" r="0.7" fill="#d3d3d3"/>
  <circle cx="25" cy="45" r="0.9" fill="#d3d3d3"/>
  <circle cx="75" cy="15" r="1.0" fill="#d3d3d3"/>
  <circle cx="50" cy="90" r="1.2" fill="#d3d3d3"/>
</svg>
